<svg xmlns="http://www.w3.org/2000/svg" width="960" height="64" viewBox="0 0 960 64" preserveAspectRatio="none">
  <defs>
    <linearGradient id="g0" x1="0%" y1="0%" x2="100%" y2="0%">
      <stop offset="0%" stop-color="#c8bfae"/>
      <stop offset="25%" stop-color="#dfd8cc"/>
      <stop offset="50%" stop-color="#b8ae9c"/>
      <stop offset="75%" stop-color="#e9e2d7"/>
      <stop offset="100%" stop-color="#b2a896"/>
    </linearGradient>
    <linearGradient id="g1" x1="0%" y1="0%" x2="0%" y2="100%">
      <stop offset="0%" stop-color="#ffffff" stop-opacity="0.3"/>
      <stop offset="100%" stop-color="#000000" stop-opacity="0.12"/>
    </linearGradient>
  </defs>
  <rect width="960" height="64" fill="url(#g0)"/>
  <rect width="960" height="64" fill="url(#g1)"/>
  <g opacity="0.24">
    <rect x="16" y="0" width="14" height="64" fill="#ffffff"/>
    <rect x="64" y="0" width="10" height="64" fill="#f7f3ea"/>
    <rect x="112" y="0" width="18" height="64" fill="#fefcf7"/>
    <rect x="168" y="0" width="12" height="64" fill="#ffffff"/>
    <rect x="224" y="0" width="16" height="64" fill="#f9f5ec"/>
    <rect x="278" y="0" width="12" height="64" fill="#fdfaf3"/>
    <rect x="334" y="0" width="10" height="64" fill="#ffffff"/>
    <rect x="388" y="0" width="18" height="64" fill="#f3efe5"/>
    <rect x="444" y="0" width="12" height="64" fill="#fefbf4"/>
    <rect x="500" y="0" width="14" height="64" fill="#ffffff"/>
    <rect x="556" y="0" width="10" height="64" fill="#faf7ef"/>
    <rect x="608" y="0" width="18" height="64" fill="#ffffff"/>
    <rect x="664" y="0" width="12" height="64" fill="#f2ede3"/>
    <rect x="720" y="0" width="16" height="64" fill="#fffcf5"/>
    <rect x="776" y="0" width="10" height="64" fill="#ffffff"/>
    <rect x="832" y="0" width="14" height="64" fill="#f7f3e8"/>
    <rect x="888" y="0" width="12" height="64" fill="#ffffff"/>
  </g>
</svg>
